<?xml version="1.0" encoding="UTF-8" standalone="no"?>
<!-- Created with Inkscape (http://www.inkscape.org/) -->

<svg
   width="76.97361mm"
   height="52.153111mm"
   viewBox="0 0 96.217012 65.191387"
   version="1.1"
   id="svg1"
   inkscape:version="1.4.2 (ebf0e940, 2025-05-08)"
   sodipodi:docname="usb2neogeo_typec.svg"
   xmlns:inkscape="http://www.inkscape.org/namespaces/inkscape"
   xmlns:sodipodi="http://sodipodi.sourceforge.net/DTD/sodipodi-0.dtd"
   xmlns="http://www.w3.org/2000/svg"
   xmlns:svg="http://www.w3.org/2000/svg">
  <sodipodi:namedview
     id="namedview1"
     pagecolor="#ffffff"
     bordercolor="#000000"
     borderopacity="0.25"
     inkscape:showpageshadow="2"
     inkscape:pageopacity="0.0"
     inkscape:pagecheckerboard="0"
     inkscape:deskcolor="#d1d1d1"
     inkscape:document-units="mm"
     inkscape:zoom="1.5864338"
     inkscape:cx="85.411695"
     inkscape:cy="106.21307"
     inkscape:window-width="976"
     inkscape:window-height="788"
     inkscape:window-x="0"
     inkscape:window-y="25"
     inkscape:window-maximized="0"
     inkscape:current-layer="layer1" />
  <defs
     id="defs1" />
  <g
     inkscape:label="Layer 1"
     inkscape:groupmode="layer"
     id="layer1"
     transform="translate(-60.631937,-148.14118)">
    <circle
       style="fill:#e61a1a;fill-opacity:1;stroke:#546e7a;stroke-width:0.269285;stroke-dasharray:none;stroke-opacity:1"
       id="path2"
       cx="71.948166"
       cy="202.01634"
       r="11.181586"
       inkscape:label="B1" />
    <circle
       style="fill:none;fill-opacity:1;stroke:#546e7a;stroke-width:0.269285;stroke-dasharray:none;stroke-opacity:1"
       id="path2-8"
       cx="71.948166"
       cy="173.84911"
       r="11.181586"
       inkscape:label="B3" />
    <circle
       style="fill:none;fill-opacity:1;stroke:#546e7a;stroke-width:0.269285;stroke-dasharray:none;stroke-opacity:1"
       id="path2-4"
       cx="93.94252"
       cy="187.57915"
       r="11.181586"
       inkscape:label="B2" />
    <circle
       style="fill:none;fill-opacity:1;stroke:#546e7a;stroke-width:0.269285;stroke-dasharray:none;stroke-opacity:1"
       id="path2-4-0"
       cx="145.53271"
       cy="194.07257"
       r="11.181586"
       inkscape:label="L2" />
    <circle
       style="fill:none;fill-opacity:1;stroke:#546e7a;stroke-width:0.269285;stroke-dasharray:none;stroke-opacity:1"
       id="path2-4-7"
       cx="119.92988"
       cy="187.57904"
       r="11.181586"
       inkscape:label="R2" />
    <circle
       style="fill:#0070bb;fill-opacity:1;stroke:#546e7a;stroke-width:0.269285;stroke-dasharray:none;stroke-opacity:1"
       id="path2-4-1"
       cx="145.53271"
       cy="165.94691"
       r="11.181586"
       inkscape:label="L1" />
    <circle
       style="fill:#43b047;fill-opacity:1;stroke:#546e7a;stroke-width:0.269285;stroke-dasharray:none;stroke-opacity:1"
       id="path2-4-2"
       cx="119.92988"
       cy="159.45741"
       r="11.181586"
       inkscape:label="R1" />
    <circle
       style="fill:#f4d03f;fill-opacity:1;stroke:#546e7a;stroke-width:0.269285;stroke-dasharray:none;stroke-opacity:1"
       id="path2-0"
       cx="93.94252"
       cy="159.45741"
       r="11.181586"
       inkscape:label="B4" />
    <path
       d="m 69.449206,203.52598 h -0.508842 l -0.352089,-1.0008 h -1.553053 l -0.35209,1.0008 h -0.484726 l 1.307073,-3.59083 h 0.636655 z m -1.008037,-1.41077 -0.629421,-1.76286 -0.631832,1.76286 z m 3.14469,-2.34163 -1.729097,4.48552 H 69.43956 l 1.721862,-4.48552 z m 3.35932,2.6479 q 0,0.26769 -0.101286,0.47267 -0.101286,0.20498 -0.272508,0.33762 -0.202572,0.15916 -0.446141,0.22669 -0.241157,0.0675 -0.614951,0.0675 h -1.27331 v -3.59083 h 1.063504 q 0.393086,0 0.588423,0.0289 0.195338,0.0289 0.373794,0.12058 0.197749,0.1037 0.286977,0.26768 0.08923,0.16158 0.08923,0.38827 0,0.25562 -0.130225,0.43649 -0.130225,0.17846 -0.347266,0.28698 v 0.0193 q 0.364147,0.0748 0.573954,0.32074 0.209807,0.24357 0.209807,0.61736 z m -0.803054,-1.61816 q 0,-0.13023 -0.04341,-0.21946 -0.04341,-0.0892 -0.139871,-0.14469 -0.113344,-0.0651 -0.274919,-0.0796 -0.161576,-0.0169 -0.400321,-0.0169 h -0.569131 v 1.03697 h 0.617362 q 0.224276,0 0.356913,-0.0217 0.132636,-0.0241 0.24598,-0.0965 0.113344,-0.0724 0.159164,-0.1857 0.04823,-0.11575 0.04823,-0.2725 z m 0.30627,1.63745 q 0,-0.21704 -0.06511,-0.34485 -0.06511,-0.12781 -0.236334,-0.21704 -0.115756,-0.0603 -0.282154,-0.0772 -0.163987,-0.0193 -0.400321,-0.0193 h -0.749999 v 1.33601 h 0.631832 q 0.313504,0 0.513664,-0.0314 0.200161,-0.0338 0.327974,-0.12058 0.135048,-0.0941 0.197749,-0.21463 0.0627,-0.12058 0.0627,-0.3111 z m 3.306265,1.08521 h -1.943727 v -0.36656 h 0.747587 v -2.40675 h -0.747587 v -0.32797 q 0.151929,0 0.325562,-0.0241 0.173633,-0.0265 0.262862,-0.0747 0.110932,-0.0603 0.173633,-0.15193 0.06511,-0.0941 0.07476,-0.25081 h 0.373793 v 3.23633 h 0.733118 z"
       id="text2-9"
       style="font-size:4.9389px;fill:#fafafa;stroke:#fafafa;stroke-width:0.264999"
       aria-label="A/B1"
       inkscape:label="A" />
    <path
       d="m 117.17704,160.70661 q -0.13264,0.0579 -0.24116,0.10852 -0.10611,0.0506 -0.27974,0.10611 -0.1471,0.0458 -0.32074,0.0772 -0.17122,0.0338 -0.37861,0.0338 -0.39068,0 -0.71142,-0.10852 -0.31833,-0.11093 -0.55466,-0.34485 -0.23151,-0.2291 -0.36174,-0.58119 -0.13022,-0.3545 -0.13022,-0.82235 0,-0.44373 0.1254,-0.79341 0.1254,-0.34967 0.36174,-0.59083 0.2291,-0.23392 0.55225,-0.35691 0.32556,-0.12299 0.72106,-0.12299 0.28939,0 0.57636,0.0699 0.28939,0.0699 0.64148,0.24598 v 0.56672 h -0.0362 q -0.29663,-0.24839 -0.58843,-0.36173 -0.2918,-0.11335 -0.62459,-0.11335 -0.27251,0 -0.49196,0.0892 -0.21705,0.0868 -0.38827,0.27251 -0.1664,0.18086 -0.26045,0.4582 -0.0916,0.27492 -0.0916,0.63665 0,0.37862 0.10129,0.65113 0.1037,0.2725 0.26527,0.44372 0.16881,0.17846 0.39309,0.26528 0.22669,0.0844 0.47749,0.0844 0.34485,0 0.6463,-0.11816 0.30145,-0.11817 0.56431,-0.35451 h 0.0338 z m 2.26688,-3.49196 -1.7291,4.48553 h -0.4172 l 1.72186,-4.48553 z m 3.62218,3.75241 h -0.61977 l -1.20097,-1.42765 h -0.67283 v 1.42765 h -0.47749 v -3.59083 h 1.00563 q 0.32556,0 0.5426,0.0434 0.21704,0.041 0.39068,0.14951 0.19533,0.12299 0.30386,0.3111 0.11093,0.18569 0.11093,0.47266 0,0.38827 -0.19534,0.65113 -0.19534,0.26045 -0.53778,0.39309 z m -1.11656,-2.58038 q 0,-0.15434 -0.0555,-0.27251 -0.0531,-0.12058 -0.17846,-0.20257 -0.1037,-0.0699 -0.24598,-0.0965 -0.14228,-0.0289 -0.33521,-0.0289 h -0.5619 v 1.3553 h 0.48232 q 0.22669,0 0.3955,-0.0386 0.16881,-0.041 0.28697,-0.14951 0.10852,-0.10129 0.15917,-0.23151 0.053,-0.13264 0.053,-0.33521 z m 3.71141,2.58038 h -1.94373 v -0.36656 h 0.74759 v -2.40675 h -0.74759 v -0.32797 q 0.15193,0 0.32557,-0.0241 0.17363,-0.0265 0.26286,-0.0748 0.11093,-0.0603 0.17363,-0.15193 0.0651,-0.0941 0.0748,-0.2508 h 0.37379 v 3.23633 h 0.73312 z"
       id="text2-4"
       style="font-size:4.9389px;fill:#fafafa;stroke:#fafafa;stroke-width:0.264999"
       aria-label="C/R1"
       inkscape:label="C" />
    <path
       d="m 89.559486,189.08879 h -0.619774 l -1.420416,-1.59887 -0.356913,0.38103 v 1.21784 h -0.477491 v -3.59083 h 0.477491 v 1.87379 l 1.743567,-1.87379 h 0.578777 l -1.603695,1.6881 z m 2.872183,0 h -2.430865 v -0.50402 q 0.253215,-0.21704 0.50643,-0.43408 0.255627,-0.21704 0.47508,-0.43167 0.463022,-0.44855 0.634243,-0.71141 0.171222,-0.26528 0.171222,-0.57155 0,-0.27974 -0.185691,-0.43649 -0.183279,-0.15917 -0.513665,-0.15917 -0.219453,0 -0.47508,0.0772 -0.255626,0.0772 -0.499195,0.23634 h -0.02412 v -0.50643 q 0.171222,-0.0844 0.455787,-0.15434 0.286977,-0.0699 0.554662,-0.0699 0.55225,0 0.865754,0.26769 0.313505,0.26527 0.313505,0.72106 0,0.20498 -0.05306,0.38344 -0.05064,0.17604 -0.151929,0.33521 -0.09405,0.14951 -0.221864,0.29421 -0.125402,0.14469 -0.30627,0.32074 -0.258038,0.25321 -0.532958,0.49196 -0.274919,0.23633 -0.513665,0.4389 h 1.93167 z m 2.394691,-3.7524 -1.729097,4.48552 h -0.417202 l 1.721862,-4.48552 z m 3.35932,2.6479 q 0,0.26769 -0.101286,0.47267 -0.101286,0.20498 -0.272508,0.33762 -0.202572,0.15916 -0.44614,0.22669 -0.241158,0.0675 -0.614951,0.0675 h -1.27331 v -3.59083 h 1.063503 q 0.393086,0 0.588424,0.0289 0.195337,0.0289 0.373793,0.12058 0.197749,0.1037 0.286977,0.26768 0.08923,0.16158 0.08923,0.38827 0,0.25562 -0.130224,0.43649 -0.130225,0.17846 -0.347267,0.28698 v 0.0193 q 0.364148,0.0748 0.573954,0.32074 0.209807,0.24357 0.209807,0.61736 z m -0.803053,-1.61816 q 0,-0.13023 -0.04341,-0.21946 -0.04341,-0.0892 -0.139871,-0.14469 -0.113344,-0.0651 -0.274919,-0.0796 -0.161575,-0.0169 -0.400321,-0.0169 h -0.569131 v 1.03697 h 0.617362 q 0.224277,0 0.356913,-0.0217 0.132636,-0.0241 0.24598,-0.0965 0.113344,-0.0724 0.159164,-0.1857 0.04823,-0.11575 0.04823,-0.2725 z m 0.306269,1.63745 q 0,-0.21704 -0.06511,-0.34485 -0.06511,-0.12781 -0.236334,-0.21704 -0.115756,-0.0603 -0.282154,-0.0772 -0.163987,-0.0193 -0.400321,-0.0193 h -0.749999 v 1.33601 h 0.631832 q 0.313504,0 0.513665,-0.0314 0.20016,-0.0338 0.327973,-0.12058 0.135049,-0.0941 0.197749,-0.21463 0.0627,-0.12058 0.0627,-0.3111 z m 3.511254,1.08521 h -2.430869 v -0.50402 q 0.253215,-0.21704 0.50643,-0.43408 0.255627,-0.21704 0.47508,-0.43167 0.463019,-0.44855 0.634239,-0.71141 0.17123,-0.26528 0.17123,-0.57155 0,-0.27974 -0.1857,-0.43649 -0.18327,-0.15917 -0.51366,-0.15917 -0.219453,0 -0.475079,0.0772 -0.255627,0.0772 -0.499196,0.23634 h -0.02412 v -0.50643 q 0.171222,-0.0844 0.455788,-0.15434 0.286977,-0.0699 0.554661,-0.0699 0.552246,0 0.865756,0.26769 0.3135,0.26527 0.3135,0.72106 0,0.20498 -0.0531,0.38344 -0.0506,0.17604 -0.15193,0.33521 -0.094,0.14951 -0.22186,0.29421 -0.1254,0.14469 -0.30627,0.32074 -0.25804,0.25321 -0.532957,0.49196 -0.27492,0.23633 -0.513665,0.4389 h 1.931672 z"
       id="text2-9-3"
       style="font-size:4.9389px;fill:#546e7a;stroke:#546e7a;stroke-width:0.265"
       aria-label="K2/B2"
       inkscape:label="K2" />
    <path
       d="m 143.10182,165.66452 q 0,0.48955 -0.21463,0.88746 -0.21222,0.39791 -0.56672,0.61736 -0.24598,0.15193 -0.54983,0.21945 -0.30145,0.0675 -0.79582,0.0675 h -0.90675 v -3.59083 h 0.8971 q 0.52572,0 0.8344,0.0772 0.3111,0.0748 0.52573,0.20739 0.36656,0.2291 0.57154,0.61013 0.20498,0.38103 0.20498,0.90434 z m -0.49919,-0.007 q 0,-0.42202 -0.14711,-0.71141 -0.1471,-0.28939 -0.4389,-0.45579 -0.21222,-0.12057 -0.45097,-0.16639 -0.23874,-0.0482 -0.57154,-0.0482 h -0.44855 v 2.7709 h 0.44855 q 0.34485,0 0.60048,-0.0506 0.25804,-0.0506 0.47267,-0.18811 0.26768,-0.17122 0.40032,-0.45096 0.13505,-0.27974 0.13505,-0.69936 z m 2.86253,-1.95337 -1.72909,4.48553 h -0.41721 l 1.72187,-4.48553 z m 2.92283,3.75241 h -2.2717 v -3.59083 h 0.47749 v 3.16639 h 1.79421 z m 2.60932,0 h -1.94373 V 167.09 h 0.74759 v -2.40675 h -0.74759 v -0.32797 q 0.15193,0 0.32557,-0.0241 0.17363,-0.0265 0.26286,-0.0748 0.11093,-0.0603 0.17363,-0.15193 0.0651,-0.0941 0.0748,-0.2508 h 0.37379 v 3.23633 h 0.73312 z"
       id="text2-8"
       style="font-size:4.9389px;fill:#fafafa;stroke:#fafafa;stroke-width:0.265"
       aria-label="D/L1"
       inkscape:label="D" />
    <path
       d="m 145.26141,195.90534 h -2.2717 v -3.59083 h 0.47749 v 3.16639 h 1.79421 z m 2.81431,0 h -2.43087 v -0.50402 q 0.25322,-0.21704 0.50643,-0.43408 0.25563,-0.21704 0.47508,-0.43167 0.46302,-0.44856 0.63424,-0.71142 0.17123,-0.26527 0.17123,-0.57154 0,-0.27974 -0.1857,-0.4365 -0.18328,-0.15916 -0.51366,-0.15916 -0.21945,0 -0.47508,0.0772 -0.25563,0.0772 -0.4992,0.23634 h -0.0241 v -0.50644 q 0.17122,-0.0844 0.45579,-0.15434 0.28697,-0.0699 0.55466,-0.0699 0.55225,0 0.86575,0.26768 0.31351,0.26528 0.31351,0.72106 0,0.20499 -0.0531,0.38344 -0.0506,0.17605 -0.15193,0.33521 -0.0941,0.14952 -0.22186,0.29421 -0.1254,0.1447 -0.30627,0.32074 -0.25804,0.25322 -0.53296,0.49196 -0.27492,0.23634 -0.51366,0.43891 h 1.93167 z"
       id="text2-8-7"
       style="font-size:4.9389px;fill:#546e7a;stroke:#546e7a;stroke-width:0.265"
       aria-label="L2"
       inkscape:label="L2" />
    <path
       d="m 71.820351,174.54001 q 0,0.26769 -0.101286,0.47267 -0.101286,0.20498 -0.272507,0.33762 -0.202572,0.15917 -0.446141,0.22669 -0.241157,0.0675 -0.614951,0.0675 h -1.27331 v -3.59083 h 1.063503 q 0.393086,0 0.588424,0.0289 0.195337,0.0289 0.373793,0.12058 0.197749,0.1037 0.286978,0.26768 0.08923,0.16158 0.08923,0.38827 0,0.25562 -0.130225,0.43649 -0.130225,0.17846 -0.347267,0.28698 v 0.0193 q 0.364148,0.0748 0.573955,0.32074 0.209806,0.24357 0.209806,0.61736 z m -0.803053,-1.61816 q 0,-0.13023 -0.04341,-0.21945 -0.04341,-0.0892 -0.139872,-0.1447 -0.113344,-0.0651 -0.274919,-0.0796 -0.161575,-0.0169 -0.400321,-0.0169 h -0.569131 v 1.03697 h 0.617363 q 0.224276,0 0.356912,-0.0217 0.132637,-0.0241 0.245981,-0.0965 0.113344,-0.0724 0.159163,-0.18569 0.04823,-0.11576 0.04823,-0.27251 z m 0.30627,1.63746 q 0,-0.21705 -0.06511,-0.34486 -0.06511,-0.12781 -0.236334,-0.21704 -0.115755,-0.0603 -0.282154,-0.0772 -0.163987,-0.0193 -0.400321,-0.0193 H 69.58965 v 1.33601 h 0.631832 q 0.313504,0 0.513665,-0.0314 0.20016,-0.0338 0.327974,-0.12058 0.135048,-0.0941 0.197749,-0.21463 0.0627,-0.12058 0.0627,-0.31109 z m 3.195333,-0.64389 q 0.115755,0.10369 0.190514,0.26045 0.07476,0.15675 0.07476,0.40514 0,0.24598 -0.08923,0.45096 -0.08923,0.20499 -0.250804,0.35692 -0.180868,0.16881 -0.426848,0.2508 -0.243569,0.0796 -0.535369,0.0796 -0.299035,0 -0.588424,-0.0724 -0.289388,-0.0699 -0.47508,-0.15434 v -0.50401 h 0.03617 q 0.204984,0.13504 0.482314,0.22427 0.277331,0.0892 0.53537,0.0892 0.151929,0 0.32315,-0.0506 0.171222,-0.0506 0.277331,-0.14952 0.110932,-0.10611 0.163987,-0.23392 0.05547,-0.12782 0.05547,-0.32315 0,-0.19293 -0.0627,-0.31833 -0.06029,-0.12781 -0.16881,-0.20016 -0.108521,-0.0748 -0.262861,-0.10129 -0.154341,-0.0289 -0.332797,-0.0289 h -0.217042 v -0.40032 h 0.16881 q 0.366559,0 0.583601,-0.15193 0.219453,-0.15434 0.219453,-0.44855 0,-0.13022 -0.05547,-0.22669 -0.05547,-0.0989 -0.154341,-0.16157 -0.103697,-0.0627 -0.221865,-0.0868 -0.118167,-0.0241 -0.267684,-0.0241 -0.229099,0 -0.487138,0.082 -0.258038,0.082 -0.487137,0.23151 h -0.02412 v -0.50402 q 0.171222,-0.0844 0.455787,-0.15434 0.286977,-0.0724 0.554662,-0.0724 0.262861,0 0.463022,0.0482 0.20016,0.0482 0.361736,0.15435 0.173633,0.11575 0.262861,0.27974 0.08923,0.16398 0.08923,0.38344 0,0.29903 -0.212218,0.52331 -0.209807,0.22186 -0.496784,0.27974 v 0.0338 q 0.115755,0.0193 0.265273,0.082 0.149517,0.0603 0.253215,0.15193 z"
       id="text2"
       style="font-size:4.9389px;fill:#546e7a;stroke:#546e7a;stroke-width:0.265"
       aria-label="B3"
       inkscape:label="B3" />
    <path
       d="m 90.934082,159.86255 q 0,0.26769 -0.101286,0.47267 -0.101286,0.20499 -0.272508,0.33762 -0.202572,0.15917 -0.446141,0.22669 -0.241157,0.0675 -0.614951,0.0675 h -1.27331 v -3.59083 h 1.063503 q 0.393087,0 0.588424,0.0289 0.195337,0.0289 0.373794,0.12058 0.197749,0.1037 0.286977,0.26769 0.08923,0.16157 0.08923,0.38826 0,0.25562 -0.130225,0.43649 -0.130225,0.17846 -0.347266,0.28698 v 0.0193 q 0.364147,0.0748 0.573954,0.32074 0.209807,0.24357 0.209807,0.61736 z m -0.803054,-1.61816 q 0,-0.13023 -0.04341,-0.21945 -0.04341,-0.0892 -0.139871,-0.1447 -0.113344,-0.0651 -0.27492,-0.0796 -0.161575,-0.0169 -0.400321,-0.0169 h -0.569131 v 1.03697 h 0.617363 q 0.224276,0 0.356913,-0.0217 0.132636,-0.0241 0.24598,-0.0965 0.113344,-0.0724 0.159164,-0.18569 0.04823,-0.11576 0.04823,-0.27251 z m 0.30627,1.63746 q 0,-0.21704 -0.06511,-0.34486 -0.06511,-0.12781 -0.236334,-0.21704 -0.115755,-0.0603 -0.282154,-0.0772 -0.163987,-0.0193 -0.400321,-0.0193 H 88.70338 v 1.33601 h 0.631832 q 0.313505,0 0.513665,-0.0314 0.200161,-0.0338 0.327974,-0.12058 0.135048,-0.0941 0.197749,-0.21463 0.0627,-0.12058 0.0627,-0.31109 z m 2.766073,-2.6672 -1.729097,4.48552 h -0.417202 l 1.721863,-4.48552 z m 3.359323,2.6479 q 0,0.26769 -0.10129,0.47267 -0.10128,0.20499 -0.272506,0.33762 -0.202572,0.15917 -0.446141,0.22669 -0.241157,0.0675 -0.614951,0.0675 h -1.27331 v -3.59083 h 1.063503 q 0.393086,0 0.588424,0.0289 0.195337,0.0289 0.373793,0.12058 0.197749,0.1037 0.286977,0.26769 0.08923,0.16157 0.08923,0.38826 0,0.25562 -0.130225,0.43649 -0.130225,0.17846 -0.347267,0.28698 v 0.0193 q 0.364148,0.0748 0.573954,0.32074 0.20981,0.24357 0.20981,0.61736 z m -0.803056,-1.61816 q 0,-0.13023 -0.04341,-0.21945 -0.04341,-0.0892 -0.139871,-0.1447 -0.113344,-0.0651 -0.274919,-0.0796 -0.161575,-0.0169 -0.400321,-0.0169 h -0.569131 v 1.03697 h 0.617362 q 0.224277,0 0.356913,-0.0217 0.132637,-0.0241 0.245981,-0.0965 0.113343,-0.0724 0.159163,-0.18569 0.04823,-0.11576 0.04823,-0.27251 z m 0.306269,1.63746 q 0,-0.21704 -0.06511,-0.34486 -0.06511,-0.12781 -0.236334,-0.21704 -0.115756,-0.0603 -0.282154,-0.0772 -0.163987,-0.0193 -0.400321,-0.0193 h -0.749999 v 1.33601 h 0.631832 q 0.313504,0 0.513665,-0.0314 0.20016,-0.0338 0.327974,-0.12058 0.135048,-0.0941 0.197749,-0.21463 0.0627,-0.12058 0.0627,-0.31109 z m 3.593247,0.0748 h -0.53296 v 1.01044 h -0.46302 v -1.01044 h -1.71945 v -0.55467 l 1.73874,-2.02572 h 0.44373 v 2.19453 h 0.53296 z m -0.99598,-0.38586 v -1.62057 l -1.39148,1.62057 z"
       id="text2-5"
       style="font-size:4.9389px;fill:#fafafa;stroke:#fafafa;stroke-width:0.265"
       aria-label="B/B4"
       inkscape:label="B" />
    <path
       d="m 115.52273,189.08868 h -0.61977 l -1.42042,-1.59887 -0.35691,0.38103 v 1.21784 h -0.47749 v -3.59083 h 0.47749 v 1.87379 l 1.74356,-1.87379 h 0.57878 l -1.60369,1.6881 z m 2.55627,-1.72909 q 0.11575,0.10369 0.19051,0.26045 0.0748,0.15675 0.0748,0.40514 0,0.24598 -0.0892,0.45096 -0.0892,0.20499 -0.2508,0.35692 -0.18087,0.16881 -0.42685,0.2508 -0.24357,0.0796 -0.53537,0.0796 -0.29904,0 -0.58842,-0.0724 -0.28939,-0.0699 -0.47508,-0.15434 v -0.50401 h 0.0362 q 0.20498,0.13504 0.48231,0.22427 0.27733,0.0892 0.53537,0.0892 0.15193,0 0.32315,-0.0506 0.17123,-0.0506 0.27733,-0.14952 0.11094,-0.10611 0.16399,-0.23392 0.0555,-0.12782 0.0555,-0.32315 0,-0.19293 -0.0627,-0.31833 -0.0603,-0.12781 -0.16881,-0.20016 -0.10852,-0.0748 -0.26287,-0.10129 -0.15434,-0.0289 -0.33279,-0.0289 h -0.21704 v -0.40032 h 0.16881 q 0.36656,0 0.5836,-0.15193 0.21945,-0.15434 0.21945,-0.44855 0,-0.13022 -0.0555,-0.22669 -0.0555,-0.0989 -0.15434,-0.16157 -0.10369,-0.0627 -0.22186,-0.0868 -0.11817,-0.0241 -0.26769,-0.0241 -0.22909,0 -0.48713,0.082 -0.25804,0.082 -0.48714,0.23151 h -0.0241 v -0.50401 q 0.17122,-0.0844 0.45578,-0.15435 0.28698,-0.0723 0.55467,-0.0723 0.26286,0 0.46302,0.0482 0.20016,0.0482 0.36173,0.15434 0.17364,0.11575 0.26286,0.27974 0.0892,0.16399 0.0892,0.38344 0,0.29904 -0.21222,0.52331 -0.2098,0.22187 -0.49678,0.27975 v 0.0338 q 0.11576,0.0193 0.26527,0.082 0.14952,0.0603 0.25322,0.15193 z m 2.7106,-2.02331 -1.7291,4.48552 h -0.4172 l 1.72186,-4.48552 z m 3.62218,3.7524 h -0.61977 l -1.20096,-1.42765 h -0.67283 v 1.42765 h -0.4775 v -3.59083 h 1.00563 q 0.32556,0 0.54261,0.0434 0.21704,0.041 0.39067,0.14952 0.19534,0.12299 0.30386,0.31109 0.11093,0.18569 0.11093,0.47267 0,0.38826 -0.19534,0.65112 -0.19533,0.26045 -0.53778,0.39309 z m -1.11656,-2.58038 q 0,-0.15434 -0.0555,-0.2725 -0.0531,-0.12058 -0.17846,-0.20258 -0.10369,-0.0699 -0.24598,-0.0965 -0.14228,-0.0289 -0.33521,-0.0289 h -0.56189 v 1.3553 h 0.48231 q 0.22669,0 0.3955,-0.0386 0.16881,-0.041 0.28697,-0.14952 0.10853,-0.10129 0.15917,-0.23151 0.053,-0.13264 0.053,-0.33521 z m 3.9164,2.58038 h -2.43087 v -0.50401 q 0.25322,-0.21705 0.50643,-0.43409 0.25563,-0.21704 0.47508,-0.43167 0.46302,-0.44855 0.63424,-0.71141 0.17123,-0.26528 0.17123,-0.57154 0,-0.27975 -0.1857,-0.4365 -0.18328,-0.15916 -0.51366,-0.15916 -0.21945,0 -0.47508,0.0772 -0.25563,0.0772 -0.49919,0.23633 H 124.87 v -0.50643 q 0.17122,-0.0844 0.45578,-0.15434 0.28698,-0.0699 0.55466,-0.0699 0.55225,0 0.86576,0.26768 0.3135,0.26527 0.3135,0.72106 0,0.20498 -0.053,0.38344 -0.0506,0.17604 -0.15193,0.33521 -0.0941,0.14952 -0.22187,0.29421 -0.1254,0.14469 -0.30626,0.32074 -0.25804,0.25321 -0.53296,0.49196 -0.27492,0.23633 -0.51367,0.4389 h 1.93167 z"
       id="text2-9-7"
       style="font-size:18.6667px;fill:#546e7a;stroke:#546e7a;stroke-width:0.264999"
       aria-label="K3/R2"
       inkscape:label="K3" />
  </g>
</svg>
