<?xml version="1.0" encoding="UTF-8" standalone="no"?>
<!-- Created with Inkscape (http://www.inkscape.org/) -->

<svg
   width="76.97361mm"
   height="52.153111mm"
   viewBox="0 0 96.217012 65.191387"
   version="1.1"
   id="svg1"
   inkscape:version="1.4.2 (ebf0e940, 2025-05-08)"
   sodipodi:docname="usb2neogeo_default.svg"
   xmlns:inkscape="http://www.inkscape.org/namespaces/inkscape"
   xmlns:sodipodi="http://sodipodi.sourceforge.net/DTD/sodipodi-0.dtd"
   xmlns="http://www.w3.org/2000/svg"
   xmlns:svg="http://www.w3.org/2000/svg">
  <sodipodi:namedview
     id="namedview1"
     pagecolor="#ffffff"
     bordercolor="#000000"
     borderopacity="0.25"
     inkscape:showpageshadow="2"
     inkscape:pageopacity="0.0"
     inkscape:pagecheckerboard="0"
     inkscape:deskcolor="#d1d1d1"
     inkscape:document-units="mm"
     inkscape:zoom="1.6324748"
     inkscape:cx="80.246264"
     inkscape:cy="134.15215"
     inkscape:window-width="1584"
     inkscape:window-height="773"
     inkscape:window-x="8"
     inkscape:window-y="33"
     inkscape:window-maximized="0"
     inkscape:current-layer="layer1" />
  <defs
     id="defs1" />
  <g
     inkscape:label="Layer 1"
     inkscape:groupmode="layer"
     id="layer1"
     transform="translate(-60.631937,-148.14118)">
    <circle
       style="fill:none;fill-opacity:1;stroke:#546e7a;stroke-width:0.269285;stroke-dasharray:none;stroke-opacity:1"
       id="path2"
       cx="71.948166"
       cy="202.01634"
       r="11.181586"
       inkscape:label="B1" />
    <circle
       style="fill:none;fill-opacity:1;stroke:#546e7a;stroke-width:0.269285;stroke-dasharray:none;stroke-opacity:1"
       id="path2-8"
       cx="71.948166"
       cy="173.84911"
       r="11.181586"
       inkscape:label="B3" />
    <circle
       style="fill:none;fill-opacity:1;stroke:#546e7a;stroke-width:0.269285;stroke-dasharray:none;stroke-opacity:1"
       id="path2-4"
       cx="93.94252"
       cy="187.57915"
       r="11.181586"
       inkscape:label="B2" />
    <circle
       style="fill:none;fill-opacity:1;stroke:#546e7a;stroke-width:0.269285;stroke-dasharray:none;stroke-opacity:1"
       id="path2-4-0"
       cx="145.53271"
       cy="194.07257"
       r="11.181586"
       inkscape:label="L2" />
    <circle
       style="fill:none;fill-opacity:1;stroke:#546e7a;stroke-width:0.269285;stroke-dasharray:none;stroke-opacity:1"
       id="path2-4-7"
       cx="119.92988"
       cy="187.57904"
       r="11.181586"
       inkscape:label="R2" />
    <circle
       style="fill:none;fill-opacity:1;stroke:#546e7a;stroke-width:0.269285;stroke-dasharray:none;stroke-opacity:1"
       id="path2-4-1"
       cx="145.53271"
       cy="165.94691"
       r="11.181586"
       inkscape:label="L1" />
    <circle
       style="fill:none;fill-opacity:1;stroke:#546e7a;stroke-width:0.269285;stroke-dasharray:none;stroke-opacity:1"
       id="path2-4-2"
       cx="119.92988"
       cy="159.45741"
       r="11.181586"
       inkscape:label="R1" />
    <circle
       style="fill:none;fill-opacity:1;stroke:#546e7a;stroke-width:0.269285;stroke-dasharray:none;stroke-opacity:1"
       id="path2-0"
       cx="93.94252"
       cy="159.45741"
       r="11.181586"
       inkscape:label="B4" />
    <path
       d="m 67.280569,172.85309 q 0,0.23875 -0.08441,0.44373 -0.08199,0.20257 -0.231511,0.35209 -0.185691,0.18569 -0.438906,0.27974 -0.253215,0.0916 -0.639067,0.0916 h -0.477491 v 1.33843 h -0.477491 v -3.59083 h 0.974275 q 0.323151,0 0.547427,0.0555 0.224276,0.0531 0.397909,0.16881 0.204984,0.13746 0.315916,0.34244 0.113344,0.20499 0.113344,0.51849 z m -0.496784,0.0121 q 0,-0.18569 -0.06511,-0.32315 -0.06511,-0.13746 -0.197749,-0.22428 -0.115756,-0.0747 -0.265273,-0.10611 -0.147106,-0.0338 -0.373794,-0.0338 h -0.472668 v 1.43489 h 0.402733 q 0.289388,0 0.470256,-0.0506 0.180868,-0.0531 0.294212,-0.1664 0.113344,-0.11576 0.159164,-0.24357 0.04823,-0.12782 0.04823,-0.28698 z m 3.258034,2.49357 h -1.943727 v -0.36656 h 0.747587 v -2.40675 h -0.747587 v -0.32798 q 0.151929,0 0.325562,-0.0241 0.173634,-0.0265 0.262862,-0.0748 0.110932,-0.0603 0.173633,-0.15193 0.06511,-0.0941 0.07476,-0.2508 h 0.373793 v 3.23633 h 0.733118 z m 2.599675,-3.75241 -1.729097,4.48552 h -0.417202 l 1.721862,-4.48552 z m 3.35932,2.64791 q 0,0.26768 -0.101286,0.47266 -0.101286,0.20499 -0.272507,0.33762 -0.202573,0.15917 -0.446141,0.22669 -0.241158,0.0675 -0.614951,0.0675 h -1.27331 v -3.59083 h 1.063503 q 0.393086,0 0.588424,0.0289 0.195337,0.0289 0.373793,0.12058 0.197749,0.1037 0.286977,0.26769 0.08923,0.16157 0.08923,0.38826 0,0.25563 -0.130225,0.4365 -0.130225,0.17845 -0.347267,0.28697 v 0.0193 q 0.364148,0.0748 0.573954,0.32074 0.209807,0.24357 0.209807,0.61737 z m -0.803053,-1.61817 q 0,-0.13022 -0.04341,-0.21945 -0.04341,-0.0892 -0.139871,-0.1447 -0.113344,-0.0651 -0.274919,-0.0796 -0.161575,-0.0169 -0.400321,-0.0169 h -0.569131 v 1.03698 h 0.617362 q 0.224277,0 0.356913,-0.0217 0.132637,-0.0241 0.24598,-0.0965 0.113344,-0.0724 0.159164,-0.18569 0.04823,-0.11576 0.04823,-0.27251 z m 0.306269,1.63746 q 0,-0.21704 -0.06511,-0.34486 -0.06511,-0.12781 -0.236334,-0.21704 -0.115756,-0.0603 -0.282154,-0.0772 -0.163987,-0.0193 -0.400321,-0.0193 h -0.749999 v 1.33601 h 0.631832 q 0.313504,0 0.513665,-0.0314 0.20016,-0.0338 0.327974,-0.12058 0.135048,-0.0941 0.197748,-0.21463 0.0627,-0.12058 0.0627,-0.31109 z m 3.195334,-0.64389 q 0.115756,0.1037 0.190514,0.26045 0.07476,0.15675 0.07476,0.40514 0,0.24598 -0.08923,0.45097 -0.08923,0.20498 -0.250804,0.35691 -0.180867,0.16881 -0.426848,0.2508 -0.243569,0.0796 -0.535369,0.0796 -0.299035,0 -0.588424,-0.0724 -0.289388,-0.0699 -0.475079,-0.15434 v -0.50402 h 0.03617 q 0.204984,0.13505 0.482315,0.22428 0.277331,0.0892 0.535369,0.0892 0.151929,0 0.323151,-0.0506 0.171221,-0.0506 0.27733,-0.14952 0.110933,-0.10611 0.163987,-0.23392 0.05547,-0.12781 0.05547,-0.32315 0,-0.19293 -0.0627,-0.31833 -0.06029,-0.12781 -0.168811,-0.20016 -0.10852,-0.0748 -0.262861,-0.10128 -0.154341,-0.0289 -0.332797,-0.0289 h -0.217041 v -0.40032 h 0.16881 q 0.366559,0 0.5836,-0.15193 0.219453,-0.15434 0.219453,-0.44856 0,-0.13022 -0.05547,-0.22668 -0.05547,-0.0989 -0.154341,-0.16158 -0.103697,-0.0627 -0.221864,-0.0868 -0.118167,-0.0241 -0.267685,-0.0241 -0.229099,0 -0.487137,0.082 -0.258039,0.082 -0.487138,0.23151 h -0.02412 v -0.50402 q 0.171222,-0.0844 0.455788,-0.15434 0.286977,-0.0723 0.554661,-0.0723 0.262862,0 0.463022,0.0482 0.200161,0.0482 0.361736,0.15434 0.173633,0.11575 0.262861,0.27974 0.08923,0.16399 0.08923,0.38344 0,0.29904 -0.212218,0.52331 -0.209807,0.22187 -0.496784,0.27974 v 0.0338 q 0.115756,0.0193 0.265273,0.082 0.149518,0.0603 0.253215,0.15193 z"
       id="text2"
       style="font-size:4.9389px;fill:#546e7a;stroke:#546e7a;stroke-width:0.265"
       aria-label="P1/B3"
       inkscape:label="P1" />
    <path
       d="m 89.208605,158.46139 q 0,0.23875 -0.08441,0.44373 -0.08199,0.20257 -0.23151,0.35209 -0.185692,0.18569 -0.438907,0.27974 -0.253215,0.0916 -0.639066,0.0916 H 87.33722 v 1.33842 h -0.477491 v -3.59083 h 0.974275 q 0.323151,0 0.547427,0.0555 0.224276,0.053 0.39791,0.16881 0.204983,0.13746 0.315916,0.34244 0.113344,0.20499 0.113344,0.51849 z m -0.496784,0.0121 q 0,-0.18569 -0.06511,-0.32315 -0.06511,-0.13746 -0.197749,-0.22428 -0.115755,-0.0748 -0.265273,-0.10611 -0.147106,-0.0338 -0.373793,-0.0338 h -0.472669 v 1.43489 h 0.402733 q 0.289389,0 0.470257,-0.0506 0.180868,-0.0531 0.294211,-0.1664 0.113344,-0.11575 0.159164,-0.24356 0.04823,-0.12782 0.04823,-0.28698 z m 3.463017,2.49356 h -2.430864 v -0.50401 q 0.253215,-0.21705 0.50643,-0.43409 0.255626,-0.21704 0.475079,-0.43167 0.463022,-0.44855 0.634244,-0.71141 0.171222,-0.26528 0.171222,-0.57155 0,-0.27974 -0.185691,-0.43649 -0.18328,-0.15916 -0.513665,-0.15916 -0.219453,0 -0.47508,0.0772 -0.255627,0.0772 -0.499196,0.23633 h -0.02411 v -0.50643 q 0.171221,-0.0844 0.455787,-0.15434 0.286977,-0.0699 0.554662,-0.0699 0.55225,0 0.865754,0.26769 0.313504,0.26527 0.313504,0.72106 0,0.20498 -0.05305,0.38344 -0.05064,0.17604 -0.151929,0.33521 -0.09405,0.14951 -0.221865,0.29421 -0.125402,0.14469 -0.30627,0.32074 -0.258038,0.25321 -0.532957,0.49196 -0.274919,0.23633 -0.513665,0.43891 h 1.931669 z m 2.394692,-3.7524 -1.729098,4.48552 H 92.42323 l 1.721863,-4.48552 z m 3.359321,2.6479 q 0,0.26769 -0.10129,0.47267 -0.10128,0.20499 -0.27251,0.33762 -0.20257,0.15917 -0.44614,0.22669 -0.24115,0.0675 -0.61495,0.0675 h -1.273307 v -3.59083 h 1.063507 q 0.39308,0 0.58842,0.0289 0.19534,0.0289 0.37379,0.12058 0.19775,0.1037 0.28698,0.26769 0.0892,0.16157 0.0892,0.38826 0,0.25562 -0.13023,0.43649 -0.13022,0.17846 -0.34726,0.28698 v 0.0193 q 0.36415,0.0748 0.57395,0.32074 0.20981,0.24357 0.20981,0.61736 z m -0.80305,-1.61816 q 0,-0.13023 -0.0434,-0.21945 -0.0434,-0.0892 -0.13987,-0.1447 -0.11335,-0.0651 -0.27492,-0.0796 -0.16158,-0.0169 -0.400325,-0.0169 h -0.569131 v 1.03697 h 0.617366 q 0.22427,0 0.35691,-0.0217 0.13264,-0.0241 0.24598,-0.0965 0.11334,-0.0724 0.15916,-0.18569 0.0482,-0.11576 0.0482,-0.27251 z m 0.30626,1.63746 q 0,-0.21704 -0.0651,-0.34486 -0.0651,-0.12781 -0.23633,-0.21704 -0.11576,-0.0603 -0.28216,-0.0772 -0.16398,-0.0193 -0.40032,-0.0193 h -0.749996 v 1.33601 h 0.631836 q 0.3135,0 0.51366,-0.0314 0.20016,-0.0338 0.32797,-0.12058 0.13505,-0.0941 0.19775,-0.21463 0.0627,-0.12058 0.0627,-0.31109 z m 3.593249,0.0748 h -0.53296 v 1.01044 h -0.46302 v -1.01044 h -1.719449 v -0.55467 l 1.738739,-2.02572 h 0.44373 v 2.19453 h 0.53296 z m -0.99598,-0.38586 v -1.62057 l -1.391479,1.62057 z"
       id="text2-5"
       style="font-size:4.9389px;fill:#546e7a;stroke:#546e7a;stroke-width:0.265"
       aria-label="P2/B4"
       inkscape:label="P2" />
    <path
       d="m 115.31534,158.46139 q 0,0.23875 -0.0844,0.44373 -0.082,0.20257 -0.23151,0.35209 -0.18569,0.18569 -0.4389,0.27974 -0.25322,0.0916 -0.63907,0.0916 h -0.47749 v 1.33842 h -0.47749 v -3.59083 h 0.97427 q 0.32315,0 0.54743,0.0555 0.22427,0.0531 0.39791,0.16881 0.20498,0.13746 0.31591,0.34244 0.11335,0.20499 0.11335,0.51849 z m -0.49679,0.0121 q 0,-0.18569 -0.0651,-0.32315 -0.0651,-0.13746 -0.19775,-0.22428 -0.11575,-0.0748 -0.26527,-0.10611 -0.14711,-0.0338 -0.37379,-0.0338 h -0.47267 v 1.43488 h 0.40273 q 0.28939,0 0.47026,-0.0506 0.18086,-0.053 0.29421,-0.1664 0.11334,-0.11575 0.15916,-0.24357 0.0482,-0.12781 0.0482,-0.28697 z m 3.1471,0.76446 q 0.11576,0.1037 0.19052,0.26046 0.0748,0.15675 0.0748,0.40514 0,0.24598 -0.0892,0.45096 -0.0892,0.20499 -0.25081,0.35691 -0.18086,0.16881 -0.42684,0.25081 -0.24357,0.0796 -0.53537,0.0796 -0.29904,0 -0.58843,-0.0724 -0.28938,-0.0699 -0.47507,-0.15434 v -0.50402 h 0.0362 q 0.20498,0.13505 0.48231,0.22428 0.27733,0.0892 0.53537,0.0892 0.15193,0 0.32315,-0.0506 0.17122,-0.0507 0.27733,-0.14952 0.11093,-0.10611 0.16399,-0.23392 0.0555,-0.12782 0.0555,-0.32316 0,-0.19292 -0.0627,-0.31832 -0.0603,-0.12782 -0.1688,-0.20016 -0.10853,-0.0748 -0.26287,-0.10129 -0.15434,-0.0289 -0.33279,-0.0289 h -0.21704 v -0.40032 h 0.16881 q 0.36655,0 0.58359,-0.15193 0.21946,-0.15434 0.21946,-0.44855 0,-0.13022 -0.0555,-0.22669 -0.0555,-0.0989 -0.15434,-0.16157 -0.1037,-0.0627 -0.22186,-0.0868 -0.11817,-0.0241 -0.26769,-0.0241 -0.2291,0 -0.48713,0.082 -0.25804,0.082 -0.48714,0.23151 h -0.0241 v -0.50402 q 0.17122,-0.0844 0.45579,-0.15434 0.28697,-0.0723 0.55466,-0.0723 0.26286,0 0.46302,0.0482 0.20016,0.0482 0.36173,0.15434 0.17364,0.11575 0.26287,0.27974 0.0892,0.16399 0.0892,0.38344 0,0.29904 -0.21222,0.52331 -0.20981,0.22187 -0.49679,0.27974 v 0.0338 q 0.11576,0.0193 0.26528,0.082 0.14951,0.0603 0.25321,0.15193 z m 2.71061,-2.0233 -1.7291,4.48552 h -0.4172 l 1.72186,-4.48552 z m 3.62218,3.7524 h -0.61977 l -1.20097,-1.42765 h -0.67282 v 1.42765 h -0.4775 v -3.59083 h 1.00563 q 0.32556,0 0.5426,0.0434 0.21704,0.041 0.39068,0.14952 0.19534,0.12299 0.30385,0.31109 0.11094,0.18569 0.11094,0.47267 0,0.38826 -0.19534,0.65112 -0.19534,0.26045 -0.53778,0.39309 z m -1.11656,-2.58038 q 0,-0.15434 -0.0555,-0.27251 -0.0531,-0.12058 -0.17846,-0.20257 -0.1037,-0.0699 -0.24598,-0.0965 -0.14228,-0.0289 -0.33521,-0.0289 h -0.56189 v 1.3553 h 0.48231 q 0.22669,0 0.3955,-0.0386 0.16881,-0.041 0.28697,-0.14952 0.10852,-0.10129 0.15917,-0.23151 0.0531,-0.13264 0.0531,-0.33521 z m 3.71141,2.58038 h -1.94373 v -0.36656 h 0.74759 v -2.40675 h -0.74759 v -0.32797 q 0.15193,0 0.32556,-0.0241 0.17364,-0.0265 0.26287,-0.0748 0.11093,-0.0603 0.17363,-0.15193 0.0651,-0.0941 0.0748,-0.2508 h 0.37379 v 3.23632 h 0.73312 z"
       id="text2-4"
       style="font-size:18.6667px;fill:#546e7a;fill-opacity:1;stroke:#546e7a;stroke-width:0.265;stroke-dasharray:none;stroke-opacity:1"
       aria-label="P3/R1"
       inkscape:label="P3" />
    <path
       d="m 145.3639,167.74837 h -2.27171 v -3.59083 h 0.4775 v 3.16639 h 1.79421 z m 2.60932,0 h -1.94373 v -0.36656 h 0.74759 v -2.40675 h -0.74759 v -0.32798 q 0.15193,0 0.32556,-0.0241 0.17363,-0.0265 0.26286,-0.0748 0.11094,-0.0603 0.17364,-0.15193 0.0651,-0.0941 0.0747,-0.2508 h 0.3738 v 3.23633 h 0.73312 z"
       id="text2-8"
       style="font-size:4.9389px;fill:#546e7a;stroke:#546e7a;stroke-width:0.265"
       aria-label="L1"
       inkscape:label="L1" />
    <path
       d="m 145.26141,195.90534 h -2.2717 v -3.59083 h 0.47749 v 3.16639 h 1.79421 z m 2.81431,0 h -2.43087 v -0.50402 q 0.25322,-0.21704 0.50643,-0.43408 0.25563,-0.21704 0.47508,-0.43167 0.46302,-0.44856 0.63424,-0.71142 0.17123,-0.26527 0.17123,-0.57154 0,-0.27974 -0.1857,-0.4365 -0.18328,-0.15916 -0.51366,-0.15916 -0.21945,0 -0.47508,0.0772 -0.25563,0.0772 -0.4992,0.23634 h -0.0241 v -0.50644 q 0.17122,-0.0844 0.45579,-0.15434 0.28697,-0.0699 0.55466,-0.0699 0.55225,0 0.86575,0.26768 0.31351,0.26528 0.31351,0.72106 0,0.20499 -0.0531,0.38344 -0.0506,0.17605 -0.15193,0.33521 -0.0941,0.14952 -0.22186,0.29421 -0.1254,0.1447 -0.30627,0.32074 -0.25804,0.25322 -0.53296,0.49196 -0.27492,0.23634 -0.51366,0.43891 h 1.93167 z"
       id="text2-8-7"
       style="font-size:4.9389px;fill:#546e7a;stroke:#546e7a;stroke-width:0.265"
       aria-label="L2"
       inkscape:label="L2" />
    <path
       d="m 67.667626,203.52598 h -0.619774 l -1.420415,-1.59887 -0.356913,0.38103 v 1.21784 h -0.47749 v -3.59083 h 0.47749 v 1.87379 l 1.743568,-1.87379 h 0.578776 l -1.603695,1.6881 z m 2.667198,0 h -1.943727 v -0.36656 h 0.747588 v -2.40674 h -0.747588 v -0.32798 q 0.151929,0 0.325562,-0.0241 0.173635,-0.0265 0.262863,-0.0748 0.110932,-0.0603 0.173633,-0.15193 0.06511,-0.094 0.07476,-0.2508 h 0.373793 v 3.23633 h 0.733118 z m 2.599674,-3.7524 -1.729097,4.48552 h -0.417203 l 1.721864,-4.48552 z m 3.359319,2.6479 q 0,0.26769 -0.101287,0.47267 -0.101285,0.20498 -0.272508,0.33762 -0.20257,0.15917 -0.44614,0.22669 -0.241157,0.0675 -0.61495,0.0675 h -1.27331 v -3.59083 h 1.063503 q 0.393086,0 0.588423,0.0289 0.195339,0.0289 0.373795,0.12058 0.197747,0.1037 0.286975,0.26768 0.08923,0.16158 0.08923,0.38827 0,0.25562 -0.130222,0.43649 -0.130226,0.17846 -0.347269,0.28698 v 0.0193 q 0.364149,0.0748 0.573956,0.32074 0.209806,0.24357 0.209806,0.61736 z m -0.803052,-1.61816 q 0,-0.13022 -0.04341,-0.21945 -0.04341,-0.0892 -0.13987,-0.1447 -0.113345,-0.0651 -0.27492,-0.0796 -0.161576,-0.0169 -0.40032,-0.0169 h -0.569132 v 1.03697 h 0.617363 q 0.224276,0 0.356912,-0.0217 0.132636,-0.0241 0.24598,-0.0965 0.113345,-0.0724 0.159163,-0.1857 0.04823,-0.11575 0.04823,-0.2725 z m 0.306268,1.63746 q 0,-0.21705 -0.06511,-0.34486 -0.06511,-0.12781 -0.236334,-0.21704 -0.115758,-0.0603 -0.282154,-0.0772 -0.163989,-0.0193 -0.400323,-0.0193 h -0.749998 v 1.33601 h 0.631833 q 0.313504,0 0.513664,-0.0314 0.20016,-0.0338 0.327973,-0.12058 0.135048,-0.0941 0.197749,-0.21463 0.0627,-0.12057 0.0627,-0.31109 z m 3.306265,1.0852 h -1.943727 v -0.36656 h 0.747586 v -2.40674 h -0.747586 v -0.32798 q 0.151929,0 0.325562,-0.0241 0.173633,-0.0265 0.262861,-0.0748 0.110932,-0.0603 0.173633,-0.15193 0.06511,-0.094 0.07476,-0.2508 h 0.373793 v 3.23633 h 0.733118 z"
       id="text2-9"
       style="font-size:18.6667px;fill:#546e7a;fill-opacity:1;stroke:#546e7a;stroke-width:0.265;stroke-dasharray:none;stroke-opacity:1"
       aria-label="K1/B1"
       inkscape:label="K1" />
    <path
       d="m 89.559486,189.08879 h -0.619774 l -1.420416,-1.59887 -0.356913,0.38103 v 1.21784 h -0.477491 v -3.59083 h 0.477491 v 1.87379 l 1.743567,-1.87379 h 0.578777 l -1.603695,1.6881 z m 2.872183,0 h -2.430865 v -0.50402 q 0.253215,-0.21704 0.50643,-0.43408 0.255627,-0.21704 0.47508,-0.43167 0.463022,-0.44855 0.634243,-0.71141 0.171222,-0.26528 0.171222,-0.57155 0,-0.27974 -0.185691,-0.43649 -0.183279,-0.15917 -0.513665,-0.15917 -0.219453,0 -0.47508,0.0772 -0.255626,0.0772 -0.499195,0.23634 h -0.02412 v -0.50643 q 0.171222,-0.0844 0.455787,-0.15434 0.286977,-0.0699 0.554662,-0.0699 0.55225,0 0.865754,0.26769 0.313505,0.26527 0.313505,0.72106 0,0.20498 -0.05306,0.38344 -0.05064,0.17604 -0.151929,0.33521 -0.09405,0.14951 -0.221864,0.29421 -0.125402,0.14469 -0.30627,0.32074 -0.258038,0.25321 -0.532958,0.49196 -0.274919,0.23633 -0.513665,0.4389 h 1.93167 z m 2.394691,-3.7524 -1.729097,4.48552 h -0.417202 l 1.721862,-4.48552 z m 3.35932,2.6479 q 0,0.26769 -0.101286,0.47267 -0.101286,0.20498 -0.272508,0.33762 -0.202572,0.15916 -0.44614,0.22669 -0.241158,0.0675 -0.614951,0.0675 h -1.27331 v -3.59083 h 1.063503 q 0.393086,0 0.588424,0.0289 0.195337,0.0289 0.373793,0.12058 0.197749,0.1037 0.286977,0.26768 0.08923,0.16158 0.08923,0.38827 0,0.25562 -0.130224,0.43649 -0.130225,0.17846 -0.347267,0.28698 v 0.0193 q 0.364148,0.0748 0.573954,0.32074 0.209807,0.24357 0.209807,0.61736 z m -0.803053,-1.61816 q 0,-0.13023 -0.04341,-0.21946 -0.04341,-0.0892 -0.139871,-0.14469 -0.113344,-0.0651 -0.274919,-0.0796 -0.161575,-0.0169 -0.400321,-0.0169 h -0.569131 v 1.03697 h 0.617362 q 0.224277,0 0.356913,-0.0217 0.132636,-0.0241 0.24598,-0.0965 0.113344,-0.0724 0.159164,-0.1857 0.04823,-0.11575 0.04823,-0.2725 z m 0.306269,1.63745 q 0,-0.21704 -0.06511,-0.34485 -0.06511,-0.12781 -0.236334,-0.21704 -0.115756,-0.0603 -0.282154,-0.0772 -0.163987,-0.0193 -0.400321,-0.0193 h -0.749999 v 1.33601 h 0.631832 q 0.313504,0 0.513665,-0.0314 0.20016,-0.0338 0.327973,-0.12058 0.135049,-0.0941 0.197749,-0.21463 0.0627,-0.12058 0.0627,-0.3111 z m 3.511254,1.08521 h -2.430869 v -0.50402 q 0.253215,-0.21704 0.50643,-0.43408 0.255627,-0.21704 0.47508,-0.43167 0.463019,-0.44855 0.634239,-0.71141 0.17123,-0.26528 0.17123,-0.57155 0,-0.27974 -0.1857,-0.43649 -0.18327,-0.15917 -0.51366,-0.15917 -0.219453,0 -0.475079,0.0772 -0.255627,0.0772 -0.499196,0.23634 h -0.02412 v -0.50643 q 0.171222,-0.0844 0.455788,-0.15434 0.286977,-0.0699 0.554661,-0.0699 0.552246,0 0.865756,0.26769 0.3135,0.26527 0.3135,0.72106 0,0.20498 -0.0531,0.38344 -0.0506,0.17604 -0.15193,0.33521 -0.094,0.14951 -0.22186,0.29421 -0.1254,0.14469 -0.30627,0.32074 -0.25804,0.25321 -0.532957,0.49196 -0.27492,0.23633 -0.513665,0.4389 h 1.931672 z"
       id="text2-9-3"
       style="font-size:4.9389px;fill:#546e7a;stroke:#546e7a;stroke-width:0.265"
       aria-label="K2/B2"
       inkscape:label="K2" />
    <path
       d="m 115.52273,189.08868 h -0.61977 l -1.42042,-1.59887 -0.35691,0.38103 v 1.21784 h -0.47749 v -3.59083 h 0.47749 v 1.87379 l 1.74356,-1.87379 h 0.57878 l -1.60369,1.6881 z m 2.55627,-1.72909 q 0.11575,0.10369 0.19051,0.26045 0.0748,0.15675 0.0748,0.40514 0,0.24598 -0.0892,0.45096 -0.0892,0.20499 -0.2508,0.35692 -0.18087,0.16881 -0.42685,0.2508 -0.24357,0.0796 -0.53537,0.0796 -0.29904,0 -0.58842,-0.0724 -0.28939,-0.0699 -0.47508,-0.15434 v -0.50401 h 0.0362 q 0.20498,0.13504 0.48231,0.22427 0.27733,0.0892 0.53537,0.0892 0.15193,0 0.32315,-0.0506 0.17123,-0.0506 0.27733,-0.14952 0.11094,-0.10611 0.16399,-0.23392 0.0555,-0.12782 0.0555,-0.32315 0,-0.19293 -0.0627,-0.31833 -0.0603,-0.12781 -0.16881,-0.20016 -0.10852,-0.0748 -0.26287,-0.10129 -0.15434,-0.0289 -0.33279,-0.0289 h -0.21704 v -0.40032 h 0.16881 q 0.36656,0 0.5836,-0.15193 0.21945,-0.15434 0.21945,-0.44855 0,-0.13022 -0.0555,-0.22669 -0.0555,-0.0989 -0.15434,-0.16157 -0.10369,-0.0627 -0.22186,-0.0868 -0.11817,-0.0241 -0.26769,-0.0241 -0.22909,0 -0.48713,0.082 -0.25804,0.082 -0.48714,0.23151 h -0.0241 v -0.50401 q 0.17122,-0.0844 0.45578,-0.15435 0.28698,-0.0723 0.55467,-0.0723 0.26286,0 0.46302,0.0482 0.20016,0.0482 0.36173,0.15434 0.17364,0.11575 0.26286,0.27974 0.0892,0.16399 0.0892,0.38344 0,0.29904 -0.21222,0.52331 -0.2098,0.22187 -0.49678,0.27975 v 0.0338 q 0.11576,0.0193 0.26527,0.082 0.14952,0.0603 0.25322,0.15193 z m 2.7106,-2.02331 -1.7291,4.48552 h -0.4172 l 1.72186,-4.48552 z m 3.62218,3.7524 h -0.61977 l -1.20096,-1.42765 h -0.67283 v 1.42765 h -0.4775 v -3.59083 h 1.00563 q 0.32556,0 0.54261,0.0434 0.21704,0.041 0.39067,0.14952 0.19534,0.12299 0.30386,0.31109 0.11093,0.18569 0.11093,0.47267 0,0.38826 -0.19534,0.65112 -0.19533,0.26045 -0.53778,0.39309 z m -1.11656,-2.58038 q 0,-0.15434 -0.0555,-0.2725 -0.0531,-0.12058 -0.17846,-0.20258 -0.10369,-0.0699 -0.24598,-0.0965 -0.14228,-0.0289 -0.33521,-0.0289 h -0.56189 v 1.3553 h 0.48231 q 0.22669,0 0.3955,-0.0386 0.16881,-0.041 0.28697,-0.14952 0.10853,-0.10129 0.15917,-0.23151 0.053,-0.13264 0.053,-0.33521 z m 3.9164,2.58038 h -2.43087 v -0.50401 q 0.25322,-0.21705 0.50643,-0.43409 0.25563,-0.21704 0.47508,-0.43167 0.46302,-0.44855 0.63424,-0.71141 0.17123,-0.26528 0.17123,-0.57154 0,-0.27975 -0.1857,-0.4365 -0.18328,-0.15916 -0.51366,-0.15916 -0.21945,0 -0.47508,0.0772 -0.25563,0.0772 -0.49919,0.23633 H 124.87 v -0.50643 q 0.17122,-0.0844 0.45578,-0.15434 0.28698,-0.0699 0.55466,-0.0699 0.55225,0 0.86576,0.26768 0.3135,0.26527 0.3135,0.72106 0,0.20498 -0.053,0.38344 -0.0506,0.17604 -0.15193,0.33521 -0.0941,0.14952 -0.22187,0.29421 -0.1254,0.14469 -0.30626,0.32074 -0.25804,0.25321 -0.53296,0.49196 -0.27492,0.23633 -0.51367,0.4389 h 1.93167 z"
       id="text2-9-7"
       style="font-size:18.6667px;fill:#546e7a;fill-opacity:1;stroke:#546e7a;stroke-width:0.265;stroke-dasharray:none;stroke-opacity:1"
       aria-label="K3/R2"
       inkscape:label="K3" />
  </g>
</svg>
